{
.appVersion = "1131";
date = "2016-01-01 00:34:48 +0000";
familyName = "Test Font";
fontMaster = (
{
alignmentZones = (
"{800, 15}",
"{700, 16}",
"{500, 15}",
"{0, -15}",
"{-200, -15}"
);
ascender = 800;
capHeight = 700;
descender = -200;
id = "F9005791-7033-4013-B8BE-A94CC4E3F6C8";
weight = Bold;
weightValue = 230;
xHeight = 500;
},
{
alignmentZones = (
"{800, 15}",
"{700, 16}",
"{500, 15}",
"{0, -15}",
"{-200, -15}"
);
ascender = 800;
capHeight = 700;
descender = -200;
id = "D665E87F-6250-4F02-BDA2-F9BF65B430D0";
weightValue = 120;
xHeight = 500;
}
);
glyphs = (
{
glyphname = A;
lastChange = "2016-01-02 18:16:32 +0000";
layers = (
{
layerId = "F9005791-7033-4013-B8BE-A94CC4E3F6C8";
paths = (
{
closed = 1;
nodes = (
"390 0 LINE",
"317 160 LINE",
"240 0 LINE",
"20 0 LINE",
"164 638 LINE",
"361 700 LINE",
"620 0 LINE"
);
}
);
width = 640;
},
{
layerId = "D665E87F-6250-4F02-BDA2-F9BF65B430D0";
paths = (
{
closed = 1;
nodes = (
"380 0 LINE",
"242 569 LINE",
"161 0 LINE",
"20 0 LINE",
"134 638 LINE",
"331 700 LINE",
"540 0 LINE"
);
}
);
width = 560;
}
);
leftKerningGroup = A;
rightKerningGroup = A;
unicode = 0041;
},
{
glyphname = B;
lastChange = "2016-01-02 18:10:32 +0000";
layers = (
{
layerId = "F9005791-7033-4013-B8BE-A94CC4E3F6C8";
paths = (
{
closed = 1;
nodes = (
"50 700 LINE",
"50 0 LINE",
"650 0 LINE",
"588 394 LINE",
"467 375 LINE",
"491 700 LINE"
);
},
{
closed = 1;
nodes = (
"332 564 LINE",
"323 423 LINE",
"258 431 LINE",
"272 566 LINE"
);
},
{
closed = 1;
nodes = (
"393 230 LINE",
"421 134 LINE",
"255 134 LINE",
"268 220 LINE"
);
}
);
width = 675;
},
{
layerId = "D665E87F-6250-4F02-BDA2-F9BF65B430D0";
paths = (
{
closed = 1;
nodes = (
"50 700 LINE",
"50 0 LINE",
"580 0 LINE",
"518 394 LINE",
"397 375 LINE",
"421 700 LINE"
);
},
{
closed = 1;
nodes = (
"303 595 LINE",
"285 361 LINE",
"175 337 LINE",
"175 590 LINE"
);
},
{
closed = 1;
nodes = (
"429 258 LINE",
"461 120 LINE",
"175 105 LINE",
"175 215 LINE"
);
}
);
width = 605;
}
);
unicode = 0042;
},
{
glyphname = C;
lastChange = "2016-01-02 18:09:39 +0000";
layers = (
{
layerId = "F9005791-7033-4013-B8BE-A94CC4E3F6C8";
paths = (
{
closed = 1;
nodes = (
"50 700 LINE",
"614 700 LINE",
"586 463 LINE",
"315 460 LINE",
"400 225 LINE",
"617 293 LINE",
"650 0 LINE",
"50 0 LINE"
);
}
);
width = 675;
},
{
layerId = "D665E87F-6250-4F02-BDA2-F9BF65B430D0";
paths = (
{
closed = 1;
nodes = (
"50 700 LINE",
"514 700 LINE",
"486 565 LINE",
"180 594 LINE",
"169 130 LINE",
"530 164 LINE",
"550 0 LINE",
"50 0 LINE"
);
}
);
width = 575;
}
);
unicode = 0043;
},
{
glyphname = D;
lastChange = "2016-01-02 18:10:05 +0000";
layers = (
{
layerId = "F9005791-7033-4013-B8BE-A94CC4E3F6C8";
paths = (
{
closed = 1;
nodes = (
"50 700 LINE",
"452 700 LINE",
"650 590 LINE",
"611 152 LINE",
"505 0 LINE",
"50 0 LINE"
);
},
{
closed = 1;
nodes = (
"293 230 LINE",
"404 259 LINE",
"418 449 LINE",
"303 490 LINE"
);
}
);
width = 690;
},
{
layerId = "D665E87F-6250-4F02-BDA2-F9BF65B430D0";
paths = (
{
closed = 1;
nodes = (
"50 700 LINE",
"352 700 LINE",
"550 590 LINE",
"511 152 LINE",
"405 0 LINE",
"50 0 LINE"
);
},
{
closed = 1;
nodes = (
"173 130 LINE",
"374 169 LINE",
"418 509 LINE",
"183 570 LINE"
);
}
);
width = 590;
}
);
unicode = 0044;
},
{
glyphname = E;
lastChange = "2016-01-02 18:01:55 +0000";
layers = (
{
layerId = "F9005791-7033-4013-B8BE-A94CC4E3F6C8";
paths = (
{
closed = 1;
nodes = (
"50 700 LINE",
"287 700 LINE",
"318 464 LINE",
"461 488 LINE",
"497 222 LINE",
"617 250 LINE",
"650 0 LINE",
"50 0 LINE"
);
}
);
width = 680;
},
{
layerId = "D665E87F-6250-4F02-BDA2-F9BF65B430D0";
paths = (
{
closed = 1;
nodes = (
"50 700 LINE",
"127 700 LINE",
"148 424 LINE",
"261 445 LINE",
"292 189 LINE",
"378 212 LINE",
"410 0 LINE",
"50 0 LINE"
);
}
);
width = 440;
}
);
unicode = 0045;
},
{
glyphname = F;
lastChange = "2016-01-02 18:03:14 +0000";
layers = (
{
layerId = "F9005791-7033-4013-B8BE-A94CC4E3F6C8";
paths = (
{
closed = 1;
nodes = (
"50 700 LINE",
"650 700 LINE",
"617 490 LINE",
"423 458 LINE",
"454 281 LINE",
"277 255 LINE",
"290 0 LINE",
"50 0 LINE"
);
}
);
width = 675;
},
{
layerId = "D665E87F-6250-4F02-BDA2-F9BF65B430D0";
paths = (
{
closed = 1;
nodes = (
"50 700 LINE",
"460 700 LINE",
"453 580 LINE",
"279 558 LINE",
"304 391 LINE",
"180 365 LINE",
"193 0 LINE",
"50 0 LINE"
);
}
);
width = 485;
}
);
leftKerningGroup = H;
rightKerningGroup = F;
unicode = 0046;
},
{
glyphname = G;
lastChange = "2016-01-02 18:05:22 +0000";
layers = (
{
layerId = "F9005791-7033-4013-B8BE-A94CC4E3F6C8";
paths = (
{
closed = 1;
nodes = (
"50 700 LINE",
"609 700 LINE",
"577 493 LINE",
"289 471 LINE",
"302 218 LINE",
"361 395 LINE",
"626 411 LINE",
"650 0 LINE",
"50 0 LINE"
);
}
);
width = 685;
},
{
layerId = "D665E87F-6250-4F02-BDA2-F9BF65B430D0";
paths = (
{
closed = 1;
nodes = (
"50 700 LINE",
"509 700 LINE",
"477 596 LINE",
"169 561 LINE",
"182 138 LINE",
"391 345 LINE",
"466 351 LINE",
"470 0 LINE",
"50 0 LINE"
);
}
);
width = 544;
}
);
unicode = 0047;
},
{
glyphname = H;
lastChange = "2016-01-02 18:06:18 +0000";
layers = (
{
layerId = "F9005791-7033-4013-B8BE-A94CC4E3F6C8";
paths = (
{
closed = 1;
nodes = (
"50 0 LINE",
"288 0 LINE",
"274 265 LINE",
"461 298 LINE",
"451 0 LINE",
"650 0 LINE",
"650 700 LINE",
"469 700 LINE",
"458 520 LINE",
"264 535 LINE",
"257 700 LINE",
"50 700 LINE"
);
}
);
width = 700;
},
{
layerId = "D665E87F-6250-4F02-BDA2-F9BF65B430D0";
paths = (
{
closed = 1;
nodes = (
"50 0 LINE",
"218 0 LINE",
"204 365 LINE",
"531 368 LINE",
"521 0 LINE",
"650 0 LINE",
"650 700 LINE",
"539 700 LINE",
"528 490 LINE",
"194 505 LINE",
"187 700 LINE",
"50 700 LINE"
);
}
);
width = 700;
}
);
unicode = 0048;
},
{
glyphname = I;
lastChange = "2016-01-02 18:07:14 +0000";
layers = (
{
layerId = "F9005791-7033-4013-B8BE-A94CC4E3F6C8";
paths = (
{
closed = 1;
nodes = (
"57 270 LINE",
"66 0 LINE",
"290 0 LINE",
"275 270 LINE",
"274 470 LINE",
"68 470 LINE"
);
},
{
closed = 1;
nodes = (
"55 500 LINE",
"283 500 LINE",
"279 700 LINE",
"50 700 LINE"
);
}
);
width = 340;
},
{
layerId = "D665E87F-6250-4F02-BDA2-F9BF65B430D0";
paths = (
{
closed = 1;
nodes = (
"57 270 LINE",
"66 0 LINE",
"200 0 LINE",
"185 270 LINE",
"184 500 LINE",
"68 500 LINE"
);
},
{
closed = 1;
nodes = (
"55 570 LINE",
"193 570 LINE",
"189 700 LINE",
"50 700 LINE"
);
}
);
width = 250;
}
);
unicode = 0049;
},
{
glyphname = J;
lastChange = "2016-01-02 18:08:59 +0000";
layers = (
{
layerId = "F9005791-7033-4013-B8BE-A94CC4E3F6C8";
paths = (
{
closed = 1;
nodes = (
"30 0 LINE",
"50 329 LINE",
"409 240 LINE",
"387 470 LINE",
"605 470 LINE",
"630 0 LINE"
);
},
{
closed = 1;
nodes = (
"374 500 LINE",
"603 499 LINE",
"611 700 LINE",
"363 700 LINE"
);
}
);
width = 680;
},
{
layerId = "D665E87F-6250-4F02-BDA2-F9BF65B430D0";
paths = (
{
closed = 1;
nodes = (
"30 0 LINE",
"40 249 LINE",
"229 160 LINE",
"213 500 LINE",
"325 500 LINE",
"350 0 LINE"
);
},
{
closed = 1;
nodes = (
"203 570 LINE",
"323 569 LINE",
"331 700 LINE",
"191 700 LINE"
);
}
);
width = 420;
}
);
unicode = 004A;
},
{
glyphname = K;
lastChange = "2016-01-02 18:15:24 +0000";
layers = (
{
layerId = "F9005791-7033-4013-B8BE-A94CC4E3F6C8";
paths = (
{
closed = 1;
nodes = (
"50 0 LINE",
"229 0 LINE",
"217 115 LINE",
"355 0 LINE",
"650 0 LINE",
"390 390 LINE",
"593 700 LINE",
"388 700 LINE",
"269 553 LINE",
"279 700 LINE",
"50 700 LINE"
);
}
);
width = 660;
},
{
layerId = "D665E87F-6250-4F02-BDA2-F9BF65B430D0";
paths = (
{
closed = 1;
nodes = (
"50 0 LINE",
"189 0 LINE",
"167 288 LINE",
"315 0 LINE",
"490 0 LINE",
"260 370 LINE",
"514 700 LINE",
"368 700 LINE",
"169 449 LINE",
"179 700 LINE",
"50 700 LINE"
);
}
);
width = 544;
}
);
unicode = 004B;
},
{
glyphname = L;
lastChange = "2016-01-02 18:16:44 +0000";
layers = (
{
layerId = "F9005791-7033-4013-B8BE-A94CC4E3F6C8";
paths = (
{
closed = 1;
nodes = (
"30 700 LINE",
"295 700 LINE",
"257 284 LINE",
"602 364 LINE",
"630 0 LINE",
"30 0 LINE"
);
}
);
width = 650;
},
{
layerId = "D665E87F-6250-4F02-BDA2-F9BF65B430D0";
paths = (
{
closed = 1;
nodes = (
"30 700 LINE",
"173 700 LINE",
"142 114 LINE",
"402 174 LINE",
"430 0 LINE",
"30 0 LINE"
);
}
);
width = 450;
}
);
leftKerningGroup = H;
rightKerningGroup = L;
unicode = 004C;
},
{
glyphname = M;
lastChange = "2016-01-02 18:18:31 +0000";
layers = (
{
layerId = "F9005791-7033-4013-B8BE-A94CC4E3F6C8";
paths = (
{
closed = 1;
nodes = (
"251 378 LINE",
"339 185 LINE",
"445 382 LINE",
"443 0 LINE",
"640 0 LINE",
"610 700 LINE",
"449 700 LINE",
"350 517 LINE SMOOTH",
"288 700 LINE",
"60 700 LINE",
"40 0 LINE",
"260 0 LINE"
);
}
);
width = 680;
},
{
layerId = "D665E87F-6250-4F02-BDA2-F9BF65B430D0";
paths = (
{
closed = 1;
nodes = (
"159 561 LINE",
"309 255 LINE",
"465 560 LINE",
"463 0 LINE",
"590 0 LINE",
"560 700 LINE",
"409 700 LINE",
"310 477 LINE SMOOTH",
"228 700 LINE",
"60 700 LINE",
"40 0 LINE",
"160 0 LINE"
);
}
);
width = 630;
}
);
unicode = 004D;
},
{
glyphname = N;
lastChange = "2016-01-02 18:20:22 +0000";
layers = (
{
layerId = "F9005791-7033-4013-B8BE-A94CC4E3F6C8";
paths = (
{
closed = 1;
nodes = (
"610 700 LINE",
"640 0 LINE",
"423 0 LINE",
"251 378 LINE",
"200 0 LINE",
"40 0 LINE",
"60 700 LINE",
"288 700 LINE",
"433 357 LINE",
"449 700 LINE"
);
}
);
width = 680;
},
{
layerId = "D665E87F-6250-4F02-BDA2-F9BF65B430D0";
paths = (
{
closed = 1;
nodes = (
"460 700 LINE",
"470 0 LINE",
"363 0 LINE",
"161 478 LINE",
"150 0 LINE",
"40 0 LINE",
"50 700 LINE",
"178 700 LINE",
"360 257 LINE",
"349 700 LINE"
);
}
);
width = 510;
}
);
unicode = 004E;
},
{
glyphname = O;
lastChange = "2016-01-02 18:21:27 +0000";
layers = (
{
layerId = "F9005791-7033-4013-B8BE-A94CC4E3F6C8";
paths = (
{
closed = 1;
nodes = (
"50 700 LINE",
"50 0 LINE",
"650 0 LINE",
"650 700 LINE"
);
},
{
closed = 1;
nodes = (
"430 254 LINE",
"322 251 LINE",
"282 532 LINE SMOOTH",
"440 533 LINE"
);
}
);
width = 700;
},
{
layerId = "D665E87F-6250-4F02-BDA2-F9BF65B430D0";
paths = (
{
closed = 1;
nodes = (
"50 700 LINE",
"50 0 LINE",
"550 0 LINE",
"550 700 LINE"
);
},
{
closed = 1;
nodes = (
"430 134 LINE",
"172 121 LINE",
"152 572 LINE SMOOTH",
"450 575 LINE"
);
}
);
width = 600;
}
);
unicode = 004F;
},
{
glyphname = P;
lastChange = "2016-01-02 18:22:41 +0000";
layers = (
{
layerId = "F9005791-7033-4013-B8BE-A94CC4E3F6C8";
paths = (
{
closed = 1;
nodes = (
"50 700 LINE",
"490 700 LINE",
"650 490 LINE",
"527 290 LINE",
"287 255 LINE",
"300 0 LINE",
"50 0 LINE"
);
}
);
width = 670;
},
{
layerId = "D665E87F-6250-4F02-BDA2-F9BF65B430D0";
paths = (
{
closed = 1;
nodes = (
"50 700 LINE",
"310 670 LINE",
"420 510 LINE",
"337 340 LINE",
"167 305 LINE",
"180 0 LINE",
"50 0 LINE"
);
}
);
width = 440;
}
);
leftKerningGroup = H;
rightKerningGroup = P;
unicode = 0050;
},
{
glyphname = Q;
lastChange = "2016-01-02 18:24:57 +0000";
layers = (
{
layerId = "F9005791-7033-4013-B8BE-A94CC4E3F6C8";
paths = (
{
closed = 1;
nodes = (
"50 700 LINE",
"60 0 LINE",
"297 0 LINE",
"405 -150 LINE",
"594 -100 LINE",
"502 0 LINE",
"640 0 LINE",
"650 700 LINE"
);
},
{
closed = 1;
nodes = (
"430 254 LINE",
"287 172 LINE",
"282 522 LINE SMOOTH",
"440 523 LINE"
);
}
);
width = 700;
},
{
layerId = "D665E87F-6250-4F02-BDA2-F9BF65B430D0";
paths = (
{
closed = 1;
nodes = (
"50 700 LINE",
"60 0 LINE",
"217 0 LINE",
"285 -170 LINE",
"394 -100 LINE",
"352 0 LINE",
"450 0 LINE",
"460 700 LINE"
);
},
{
closed = 1;
nodes = (
"340 174 LINE",
"172 122 LINE",
"167 582 LINE SMOOTH",
"350 583 LINE"
);
}
);
width = 510;
}
);
unicode = 0051;
},
{
glyphname = R;
lastChange = "2016-01-02 18:25:55 +0000";
layers = (
{
layerId = "F9005791-7033-4013-B8BE-A94CC4E3F6C8";
paths = (
{
closed = 1;
nodes = (
"50 700 LINE",
"490 700 LINE",
"620 490 LINE",
"527 300 LINE",
"650 0 LINE",
"430 0 LINE",
"377 251 LINE",
"276 233 LINE",
"294 0 LINE",
"50 0 LINE"
);
}
);
width = 675;
},
{
layerId = "D665E87F-6250-4F02-BDA2-F9BF65B430D0";
paths = (
{
closed = 1;
nodes = (
"50 700 LINE",
"321 670 LINE",
"431 510 LINE",
"328 340 LINE",
"461 0 LINE",
"324 0 LINE",
"231 291 LINE",
"160 273 LINE",
"188 0 LINE",
"50 0 LINE"
);
}
);
width = 486;
}
);
leftKerningGroup = H;
rightKerningGroup = R;
unicode = 0052;
},
{
glyphname = S;
lastChange = "2016-01-02 18:27:36 +0000";
layers = (
{
layerId = "F9005791-7033-4013-B8BE-A94CC4E3F6C8";
paths = (
{
closed = 1;
nodes = (
"210 700 LINE",
"18 490 LINE",
"176 238 LINE",
"18 0 LINE",
"378 0 LINE",
"618 250 LINE",
"336 489 LINE",
"528 700 LINE"
);
}
);
width = 636;
},
{
layerId = "D665E87F-6250-4F02-BDA2-F9BF65B430D0";
paths = (
{
closed = 1;
nodes = (
"210 700 LINE",
"18 490 LINE",
"176 238 LINE",
"18 0 LINE",
"188 0 LINE",
"378 180 LINE",
"166 489 LINE",
"358 700 LINE"
);
}
);
width = 406;
}
);
leftKerningGroup = S;
rightKerningGroup = S;
unicode = 0053;
},
{
glyphname = T;
lastChange = "2016-01-02 18:29:18 +0000";
layers = (
{
layerId = "F9005791-7033-4013-B8BE-A94CC4E3F6C8";
paths = (
{
closed = 1;
nodes = (
"620 700 LINE",
"620 487 LINE",
"498 501 LINE",
"509 0 LINE",
"133 0 LINE",
"148 520 LINE",
"30 529 LINE",
"20 700 LINE"
);
}
);
width = 640;
},
{
layerId = "D665E87F-6250-4F02-BDA2-F9BF65B430D0";
paths = (
{
closed = 1;
nodes = (
"490 700 LINE",
"491 565 LINE",
"319 573 LINE",
"329 0 LINE",
"183 0 LINE",
"198 579 LINE",
"30 590 LINE",
"20 700 LINE"
);
}
);
width = 511;
}
);
leftKerningGroup = T;
unicode = 0054;
},
{
glyphname = U;
lastChange = "2016-01-02 18:30:46 +0000";
layers = (
{
layerId = "F9005791-7033-4013-B8BE-A94CC4E3F6C8";
paths = (
{
closed = 1;
nodes = (
"50 0 LINE",
"650 0 LINE",
"650 700 LINE",
"425 700 LINE",
"434 341 LINE",
"298 324 LINE",
"287 700 LINE",
"50 700 LINE"
);
}
);
width = 700;
},
{
layerId = "D665E87F-6250-4F02-BDA2-F9BF65B430D0";
paths = (
{
closed = 1;
nodes = (
"50 0 LINE",
"520 0 LINE",
"520 700 LINE",
"378 700 LINE",
"381 149 LINE",
"195 133 LINE",
"184 700 LINE",
"50 700 LINE"
);
}
);
width = 570;
}
);
unicode = 0055;
},
{
glyphname = V;
lastChange = "2016-01-02 18:31:41 +0000";
layers = (
{
layerId = "F9005791-7033-4013-B8BE-A94CC4E3F6C8";
paths = (
{
closed = 1;
nodes = (
"195 0 LINE",
"483 0 LINE",
"613 700 LINE",
"409 700 LINE",
"326 463 LINE",
"201 700 LINE",
"13 700 LINE"
);
}
);
width = 626;
},
{
layerId = "D665E87F-6250-4F02-BDA2-F9BF65B430D0";
paths = (
{
closed = 1;
nodes = (
"195 0 LINE",
"393 0 LINE",
"523 700 LINE",
"369 700 LINE",
"289 96 LINE",
"161 700 LINE",
"13 700 LINE"
);
}
);
width = 546;
}
);
leftKerningGroup = V;
rightKerningGroup = V;
unicode = 0056;
},
{
glyphname = W;
lastChange = "2016-01-02 18:34:05 +0000";
layers = (
{
layerId = "F9005791-7033-4013-B8BE-A94CC4E3F6C8";
paths = (
{
closed = 1;
nodes = (
"30 700 LINE",
"50 0 LINE",
"248 0 LINE",
"340 183 LINE SMOOTH",
"439 0 LINE",
"600 0 LINE",
"630 700 LINE",
"433 700 LINE",
"435 408 LINE",
"329 605 LINE",
"241 412 LINE",
"250 700 LINE"
);
}
);
width = 660;
},
{
layerId = "D665E87F-6250-4F02-BDA2-F9BF65B430D0";
paths = (
{
closed = 1;
nodes = (
"30 700 LINE",
"60 0 LINE",
"148 0 LINE",
"280 203 LINE SMOOTH",
"419 0 LINE",
"510 0 LINE",
"530 700 LINE",
"403 700 LINE",
"405 208 LINE",
"269 405 LINE",
"156 212 LINE",
"160 700 LINE"
);
}
);
width = 560;
}
);
unicode = 0057;
},
{
glyphname = X;
lastChange = "2016-01-02 18:34:12 +0000";
layers = (
{
layerId = "F9005791-7033-4013-B8BE-A94CC4E3F6C8";
paths = (
{
closed = 1;
nodes = (
"222 690 LINE",
"338 575 LINE",
"442 701 LINE",
"635 700 LINE",
"635 557 LINE",
"491 384 LINE",
"635 211 LINE",
"635 0 LINE",
"492 0 LINE",
"328 194 LINE",
"183 0 LINE",
"35 0 LINE",
"45 215 LINE",
"173 380 LINE",
"45 544 LINE",
"55 700 LINE"
);
}
);
width = 670;
},
{
layerId = "D665E87F-6250-4F02-BDA2-F9BF65B430D0";
paths = (
{
closed = 1;
nodes = (
"222 690 LINE",
"338 575 LINE",
"442 701 LINE",
"635 700 LINE",
"635 557 LINE",
"491 384 LINE",
"635 211 LINE",
"635 0 LINE",
"492 0 LINE",
"328 194 LINE",
"183 0 LINE",
"35 0 LINE",
"45 215 LINE",
"173 380 LINE",
"45 544 LINE",
"55 700 LINE"
);
}
);
width = 670;
}
);
unicode = 0058;
},
{
glyphname = Y;
lastChange = "2016-01-02 18:34:24 +0000";
layers = (
{
layerId = "F9005791-7033-4013-B8BE-A94CC4E3F6C8";
paths = (
{
closed = 1;
nodes = (
"303 571 LINE",
"354 700 LINE",
"608 700 LINE",
"415 351 LINE",
"475 0 LINE",
"153 0 LINE",
"172 357 LINE",
"8 700 LINE",
"256 700 LINE"
);
}
);
width = 616;
},
{
layerId = "D665E87F-6250-4F02-BDA2-F9BF65B430D0";
paths = (
{
closed = 1;
nodes = (
"303 571 LINE",
"354 700 LINE",
"608 700 LINE",
"415 351 LINE",
"475 0 LINE",
"153 0 LINE",
"172 357 LINE",
"8 700 LINE",
"256 700 LINE"
);
}
);
width = 616;
}
);
leftKerningGroup = Y;
rightKerningGroup = F;
unicode = 0059;
},
{
glyphname = Z;
lastChange = "2016-01-02 18:34:29 +0000";
layers = (
{
layerId = "F9005791-7033-4013-B8BE-A94CC4E3F6C8";
paths = (
{
closed = 1;
nodes = (
"640 700 LINE",
"640 500 LINE",
"332 284 LINE",
"612 364 LINE",
"640 0 LINE",
"40 0 LINE",
"40 257 LINE",
"317 490 LINE",
"60 477 LINE",
"70 700 LINE"
);
}
);
width = 680;
},
{
layerId = "D665E87F-6250-4F02-BDA2-F9BF65B430D0";
paths = (
{
closed = 1;
nodes = (
"640 700 LINE",
"640 500 LINE",
"332 284 LINE",
"612 364 LINE",
"640 0 LINE",
"40 0 LINE",
"40 257 LINE",
"317 490 LINE",
"60 477 LINE",
"70 700 LINE"
);
}
);
width = 680;
}
);
unicode = 005A;
},
{
glyphname = comma;
lastChange = "2016-01-02 18:44:59 +0000";
layers = (
{
layerId = "F9005791-7033-4013-B8BE-A94CC4E3F6C8";
paths = (
{
closed = 1;
nodes = (
"50 226 LINE",
"276 226 LINE",
"276 0 LINE",
"50 -200 LINE"
);
}
);
width = 326;
},
{
layerId = "D665E87F-6250-4F02-BDA2-F9BF65B430D0";
paths = (
{
closed = 1;
nodes = (
"60 186 LINE",
"196 186 LINE",
"196 0 LINE",
"50 -150 LINE"
);
}
);
width = 246;
}
);
leftKerningGroup = period;
rightKerningGroup = period;
unicode = 002C;
},
{
glyphname = exclam;
lastChange = "2016-01-02 18:37:49 +0000";
layers = (
{
components = (
{
name = _part.period;
transform = "{1, 0, 0, 1, 50, 0}";
}
);
layerId = "F9005791-7033-4013-B8BE-A94CC4E3F6C8";
paths = (
{
closed = 1;
nodes = (
"263 480 LINE",
"284 700 LINE",
"50 700 LINE",
"59 480 LINE",
"68 299 LINE",
"252 295 LINE"
);
}
);
width = 334;
},
{
components = (
{
name = _part.period;
transform = "{1, 0, 0, 1, 50, 0}";
}
);
layerId = "D665E87F-6250-4F02-BDA2-F9BF65B430D0";
paths = (
{
closed = 1;
nodes = (
"206 478 LINE",
"230 718 LINE",
"76 720 LINE",
"82 480 LINE",
"85 264 LINE",
"185 261 LINE"
);
}
);
width = 290;
}
);
unicode = 0021;
},
{
glyphname = question;
lastChange = "2016-01-02 18:41:45 +0000";
layers = (
{
components = (
{
name = _part.period;
transform = "{1, 0, 0, 1, 220, 0}";
}
);
layerId = "F9005791-7033-4013-B8BE-A94CC4E3F6C8";
paths = (
{
closed = 1;
nodes = (
"553 700 LINE",
"630 468 LINE",
"436 297 LINE",
"242 295 LINE",
"307 510 LINE",
"30 470 LINE",
"30 700 LINE"
);
}
);
width = 650;
},
{
components = (
{
name = _part.period;
transform = "{1, 0, 0, 1, 190, 0}";
}
);
layerId = "D665E87F-6250-4F02-BDA2-F9BF65B430D0";
paths = (
{
closed = 1;
nodes = (
"423 740 LINE",
"470 478 LINE",
"324 263 LINE",
"250 261 LINE",
"327 610 LINE",
"80 500 LINE",
"30 670 LINE"
);
}
);
width = 490;
}
);
leftKerningGroup = T;
rightKerningGroup = P;
unicode = 003F;
},
{
glyphname = _part.period;
lastChange = "2016-01-02 18:45:32 +0000";
layers = (
{
layerId = "F9005791-7033-4013-B8BE-A94CC4E3F6C8";
paths = (
{
closed = 1;
nodes = (
"0 226 LINE",
"226 226 LINE",
"226 0 LINE",
"0 0 LINE"
);
}
